<?xml version="1.0" encoding="UTF-8" standalone="no"?>
<!-- Generator: Adobe Illustrator 19.0.0, SVG Export Plug-In . SVG Version: 6.00 Build 0)  -->

<svg
   xmlns:dc="http://purl.org/dc/elements/1.1/"
   xmlns:cc="http://creativecommons.org/ns#"
   xmlns:rdf="http://www.w3.org/1999/02/22-rdf-syntax-ns#"
   xmlns:svg="http://www.w3.org/2000/svg"
   xmlns="http://www.w3.org/2000/svg"
   xmlns:sodipodi="http://sodipodi.sourceforge.net/DTD/sodipodi-0.dtd"
   xmlns:inkscape="http://www.inkscape.org/namespaces/inkscape"
   version="1.1"
   id="Capa_1"
   x="0px"
   y="0px"
   viewBox="0 0 512.001 512.001"
   style="enable-background:new 0 0 512.001 512.001;"
   xml:space="preserve"
   sodipodi:docname="hiring.svg"
   inkscape:version="0.92.4 (5da689c313, 2019-01-14)"><metadata
   id="metadata85"><rdf:RDF><cc:Work
       rdf:about=""><dc:format>image/svg+xml</dc:format><dc:type
         rdf:resource="http://purl.org/dc/dcmitype/StillImage" /></cc:Work></rdf:RDF></metadata><defs
   id="defs83" /><sodipodi:namedview
   pagecolor="#ffffff"
   bordercolor="#666666"
   borderopacity="1"
   objecttolerance="10"
   gridtolerance="10"
   guidetolerance="10"
   inkscape:pageopacity="0"
   inkscape:pageshadow="2"
   inkscape:window-width="1920"
   inkscape:window-height="1017"
   id="namedview81"
   showgrid="false"
   inkscape:zoom="0.92187324"
   inkscape:cx="117.57195"
   inkscape:cy="216.96506"
   inkscape:window-x="1912"
   inkscape:window-y="-8"
   inkscape:window-maximized="1"
   inkscape:current-layer="Capa_1" />
<g
   id="g6"
   style="stroke-width:15;stroke-miterlimit:4;stroke-dasharray:none">
	<g
   id="g4"
   style="stroke-width:15;stroke-miterlimit:4;stroke-dasharray:none">
		
	</g>
</g>
<g
   id="g12"
   style="stroke-width:8;stroke-miterlimit:4;stroke-dasharray:none">
	<g
   id="g10"
   style="stroke-width:8;stroke-miterlimit:4;stroke-dasharray:none">
		<path
   d="m 501.331,387.51 c -13.195,-13.195 -33.922,-15.084 -49.284,-4.489 -0.113,0.078 -0.224,0.158 -0.333,0.24 l -56.056,42.156 c -4.414,3.319 -5.301,9.589 -1.982,14.003 3.319,4.413 9.588,5.302 14.002,1.981 l 55.876,-42.021 c 7.398,-4.998 17.309,-4.056 23.635,2.271 3.335,3.335 5.036,7.766 4.79,12.476 -0.246,4.71 -2.401,8.94 -6.066,11.909 l -51.167,41.442 C 415.223,483.291 390.635,492 365.511,492 H 217.506 c -20.093,0 -39.798,-5.502 -56.984,-15.911 L 120.251,451.698 V 325.135 h 77.116 c 10.684,0 20.729,4.161 28.268,11.7 l 53.2,53.449 c 7.555,7.555 17.6,11.716 28.284,11.716 h 39.236 c 8.26,0 14.979,6.72 14.979,14.979 0,8.259 -6.72,14.979 -14.979,14.979 H 271 c -6.911,0 -13.625,-1.991 -19.417,-5.759 l -32.091,-20.872 -0.117,-0.076 c -4.625,-3.017 -10.821,-1.717 -13.84,2.908 -3.019,4.625 -1.717,10.821 2.908,13.84 l 32.235,20.966 c 9.045,5.884 19.53,8.993 30.322,8.993 h 75.354 c 19.288,0 34.979,-15.691 34.979,-34.979 0,-19.288 -15.692,-34.979 -34.979,-34.979 h -38.6 l 83.138,-48 H 492 c 11.028,0 20,-8.972 20,-20 V 20 C 512,8.972 503.028,0 492,0 H 280 c -11.028,0 -20,8.972 -20,20 v 294 c 0,11.028 8.972,20 20,20 h 70.892 l -63.416,36.613 c -10e-4,0 -10e-4,10e-4 -0.002,10e-4 l -47.682,-47.906 c -11.333,-11.333 -26.4,-17.574 -42.427,-17.574 H 120.25 V 287.5 c 0,-11.028 -8.972,-20 -20,-20 H 10 c -5.523,0 -10,4.478 -10,10 V 502 c 0,5.522 4.477,10 10,10 h 90.25 c 11.028,0 20,-8.972 20,-20 v -16.919 l 29.91,18.115 C 170.472,505.498 193.759,512 217.506,512 h 148.005 c 29.692,0 58.751,-10.292 81.823,-28.98 l 51.167,-41.442 c 8.009,-6.488 12.912,-16.112 13.45,-26.405 0.539,-10.293 -3.333,-20.376 -10.62,-27.663 z M 280,314 V 20 h 212 l 0.013,293.999 c 0,0 -0.004,10e-4 -0.013,10e-4 z M 100.25,492 H 20 V 287.5 h 80.25 l 0.002,27.601 c 0,0.011 -0.002,0.022 -0.002,0.034 0,0.012 0.002,0.022 0.002,0.034 l 0.009,141.676 c -0.012,0.253 -0.007,0.505 0,0.756 l 0.002,34.398 c 0,0 -0.004,10e-4 -0.013,10e-4 z"
   id="path8"
   inkscape:connector-curvature="0"
   style="fill:#333333;fill-opacity:1;stroke:#333333;stroke-width:15;stroke-miterlimit:4;stroke-dasharray:none;stroke-opacity:1" />
	</g>
</g>
<g
   id="g18"
   style="stroke-width:8;stroke-miterlimit:4;stroke-dasharray:none">
	<g
   id="g16"
   style="stroke-width:8;stroke-miterlimit:4;stroke-dasharray:none">
		<path
   d="m 234.16,50.366 c -2.761,-4.783 -8.878,-6.422 -13.66,-3.66 l -90.024,51.975 c -9.55,5.515 -12.833,17.771 -7.32,27.32 l 87.369,151.328 c 1.852,3.208 5.213,5.002 8.669,5.002 1.696,0 3.416,-0.433 4.991,-1.342 4.783,-2.762 6.422,-8.877 3.66,-13.66 L 140.476,116.001 230.5,64.026 c 4.783,-2.761 6.422,-8.877 3.66,-13.66 z"
   id="path14"
   inkscape:connector-curvature="0"
   style="fill:#333333;fill-opacity:1;stroke:#333333;stroke-width:15;stroke-miterlimit:4;stroke-dasharray:none;stroke-opacity:1" />
	</g>
</g>
<g
   id="g24"
   style="stroke-width:8;stroke-miterlimit:4;stroke-dasharray:none">
	<g
   id="g22"
   style="stroke-width:8;stroke-miterlimit:4;stroke-dasharray:none">
		<path
   d="M 448,212 H 332 c -5.523,0 -10,4.477 -10,10 0,5.523 4.477,10 10,10 h 116 c 5.523,0 10,-4.477 10,-10 0,-5.523 -4.477,-10 -10,-10 z"
   id="path20"
   inkscape:connector-curvature="0"
   style="fill:#333333;fill-opacity:1;stroke:#333333;stroke-width:15;stroke-miterlimit:4;stroke-dasharray:none;stroke-opacity:1" />
	</g>
</g>
<g
   id="g30"
   style="stroke-width:8;stroke-miterlimit:4;stroke-dasharray:none">
	<g
   id="g28"
   style="stroke-width:8;stroke-miterlimit:4;stroke-dasharray:none">
		<path
   d="M 455.07,258.93 C 453.21,257.07 450.63,256 448,256 c -2.63,0 -5.21,1.069 -7.07,2.93 -1.86,1.86 -2.93,4.44 -2.93,7.07 0,2.63 1.07,5.21 2.93,7.069 1.86,1.86 4.44,2.931 7.07,2.931 2.63,0 5.21,-1.07 7.07,-2.931 1.86,-1.859 2.93,-4.439 2.93,-7.069 0,-2.63 -1.07,-5.21 -2.93,-7.07 z"
   id="path26"
   inkscape:connector-curvature="0"
   style="fill:#333333;fill-opacity:1;stroke:#333333;stroke-width:15;stroke-miterlimit:4;stroke-dasharray:none;stroke-opacity:1" />
	</g>
</g>
<g
   id="g36"
   style="stroke-width:8;stroke-miterlimit:4;stroke-dasharray:none">
	<g
   id="g34"
   style="stroke-width:8;stroke-miterlimit:4;stroke-dasharray:none">
		<path
   d="M 406.292,256 H 332 c -5.523,0 -10,4.478 -10,10 0,5.522 4.477,10 10,10 h 74.292 c 5.523,0 10,-4.478 10,-10 0,-5.522 -4.477,-10 -10,-10 z"
   id="path32"
   inkscape:connector-curvature="0"
   style="fill:#333333;fill-opacity:1;stroke:#333333;stroke-width:15;stroke-miterlimit:4;stroke-dasharray:none;stroke-opacity:1" />
	</g>
</g>
<g
   id="g42"
   style="stroke-width:8;stroke-miterlimit:4;stroke-dasharray:none">
	<g
   id="g40"
   style="stroke-width:8;stroke-miterlimit:4;stroke-dasharray:none">
		<path
   d="m 60.125,368.547 c -5.523,0 -10,4.478 -10,10 v 39.12 c 0,5.522 4.477,10 10,10 5.523,0 10,-4.478 10,-10 v -39.12 c 0,-5.523 -4.477,-10 -10,-10 z"
   id="path38"
   inkscape:connector-curvature="0"
   style="fill:#333333;fill-opacity:1;stroke:#333333;stroke-width:15;stroke-miterlimit:4;stroke-dasharray:none;stroke-opacity:1" />
	</g>
</g>
<g
   id="g48"
   style="stroke-width:8;stroke-miterlimit:4;stroke-dasharray:none">
	<g
   id="g46"
   style="stroke-width:8;stroke-miterlimit:4;stroke-dasharray:none">
		<path
   d="m 67.2,445.02 c -1.87,-1.86 -4.44,-2.93 -7.08,-2.93 -2.63,0 -5.2,1.07 -7.07,2.93 -1.86,1.86 -2.92,4.44 -2.92,7.07 0,2.64 1.06,5.21 2.92,7.07 1.86,1.859 4.44,2.93 7.07,2.93 2.64,0 5.21,-1.07 7.08,-2.93 1.86,-1.86 2.92,-4.431 2.92,-7.07 0,-2.63 -1.06,-5.21 -2.92,-7.07 z"
   id="path44"
   inkscape:connector-curvature="0"
   style="fill:#333333;fill-opacity:1;stroke:#333333;stroke-width:15;stroke-miterlimit:4;stroke-dasharray:none;stroke-opacity:1" />
	</g>
</g>
<g
   id="g50"
   style="stroke-width:15;stroke-miterlimit:4;stroke-dasharray:none">
</g>
<g
   id="g52"
   style="stroke-width:15;stroke-miterlimit:4;stroke-dasharray:none">
</g>
<g
   id="g54"
   style="stroke-width:15;stroke-miterlimit:4;stroke-dasharray:none">
</g>
<g
   id="g56"
   style="stroke-width:15;stroke-miterlimit:4;stroke-dasharray:none">
</g>
<g
   id="g58"
   style="stroke-width:15;stroke-miterlimit:4;stroke-dasharray:none">
</g>
<g
   id="g60"
   style="stroke-width:15;stroke-miterlimit:4;stroke-dasharray:none">
</g>
<g
   id="g62"
   style="stroke-width:15;stroke-miterlimit:4;stroke-dasharray:none">
</g>
<g
   id="g64"
   style="stroke-width:15;stroke-miterlimit:4;stroke-dasharray:none">
</g>
<g
   id="g66"
   style="stroke-width:15;stroke-miterlimit:4;stroke-dasharray:none">
</g>
<g
   id="g68"
   style="stroke-width:15;stroke-miterlimit:4;stroke-dasharray:none">
</g>
<g
   id="g70"
   style="stroke-width:15;stroke-miterlimit:4;stroke-dasharray:none">
</g>
<g
   id="g72"
   style="stroke-width:15;stroke-miterlimit:4;stroke-dasharray:none">
</g>
<g
   id="g74"
   style="stroke-width:15;stroke-miterlimit:4;stroke-dasharray:none">
</g>
<g
   id="g76"
   style="stroke-width:15;stroke-miterlimit:4;stroke-dasharray:none">
</g>
<g
   id="g78"
   style="stroke-width:15;stroke-miterlimit:4;stroke-dasharray:none">
</g>
<path
   d="m 447.59397,165.72915 h -116 c -5.523,0 -10,4.477 -10,10 0,5.523 4.477,10 10,10 h 116 c 5.523,0 10,-4.477 10,-10 0,-5.523 -4.477,-10 -10,-10 z"
   id="path20-8"
   inkscape:connector-curvature="0"
   style="fill:#333333;fill-opacity:1;stroke:#333333;stroke-width:15;stroke-miterlimit:4;stroke-dasharray:none;stroke-opacity:1" /><path
   d="m 447.01771,124.50873 h -116 c -5.523,0 -10,4.477 -10,10 0,5.523 4.477,10 10,10 h 116 c 5.523,0 10,-4.477 10,-10 0,-5.523 -4.477,-10 -10,-10 z"
   id="path20-8-1"
   inkscape:connector-curvature="0"
   style="fill:#333333;fill-opacity:1;stroke:#333333;stroke-width:15;stroke-miterlimit:4;stroke-dasharray:none;stroke-opacity:1" /><path
   d="m 447.01771,80.50873 h -116 c -5.523,0 -10,4.477 -10,10 0,5.523 4.477,10 10,10 h 116 c 5.523,0 10,-4.477 10,-10 0,-5.523 -4.477,-10 -10,-10 z"
   id="path20-8-5"
   inkscape:connector-curvature="0"
   style="fill:#333333;fill-opacity:1;stroke:#333333;stroke-width:15;stroke-miterlimit:4;stroke-dasharray:none;stroke-opacity:1" /></svg>